<svg xmlns="http://www.w3.org/2000/svg" xmlns:svg="http://www.w3.org/2000/svg" id="svg2985" width="96" height="96" enable-background="new" version="1.1"><metadata id="metadata2990"/><g id="layer3" style="display:inline"><rect style="fill:#4995a9;fill-opacity:1" id="rect3884" width="96.716" height="96.716" x="-.164" y="-.388"/></g><g id="layer1" transform="translate(0,48)" style="display:inline;opacity:1"><rect style="fill:#fff;display:none" id="rect3772" width="64.368" height="46.305" x="15.764" y="-7.337"/><path style="fill:#fff;fill-opacity:.39215686;stroke:none" id="rect4152" d="m 0.84375,-41.381492 c -0.0415654,1.318144 0.008308,68.866365 0,70.1875 -0.008308,1.321135 0.8414097,1.647648 1.890625,1.625 1.0492154,-0.02265 38.203125,-0.0625 38.203125,-0.0625 l 0,-8.9375 -29.15625,0 c -2.055751,0 -3.6875,-1.34641 -3.6875,-3 l 0,-0.65625 c 0,-1.653589 1.631749,-3 3.6875,-3 l 29.15625,0 0,-6.625 -29.15625,0 c -2.055751,0 -3.6875,-1.3464099 -3.6875,-2.9999999 l 0,-0.65625 c 0,-1.65359 1.631749,-3 3.6875,-3 l 29.15625,0 0,-6.34375 18.625,0 0.176777,-15.8140241 c -0.02276,-3.126114 -17.838123,-22.101361 -21.344856,-22.248476 0,0 -35.2344827,-0.0033 -35.9940855,-0.01563 -0.7596028,-0.01229 -1.51502011,0.228736 -1.5565855,1.54688 z m 10.9375,29.65625 37.3125,0 c 2.05575,0 3.6875,1.31516 3.6875,2.9687501 l 0,0.6875 c 0,1.65359 -1.63175,2.96875 -3.6875,2.96875 l -37.3125,0 c -2.055751,0 -3.6875,-1.31516 -3.6875,-2.96875 l 0,-0.6875 c 0,-1.6535901 1.631749,-2.9687501 3.6875,-2.9687501 z"/><path style="fill:#fff;fill-opacity:.39607843;stroke:none;display:inline" id="rect4152-4-4" d="m 38.427318,-32.057373 0,73.325875 28.336384,0 28.344197,-1.835937 -0.02922,-47.1492437 C 95.065866,-10.065543 73.611671,-32.17458 71.303797,-32.21499 z"/><path style="fill:#fff;fill-opacity:1;stroke:none" id="rect4152-8" d="m 36.399112,-30.320758 c -0.01441,1.219064 0.02634,68.962932 0.02821,70.24551 0.0019,1.282578 0.961066,1.33935 1.485852,1.34375 0.524786,0.0044 54.045294,-0.0012 55.478844,0.0033 1.506686,0.0048 1.705319,-0.413003 1.713763,-1.704776 0.0084,-1.291773 -0.03491,-47.0883922 -0.03491,-47.0883922 0.02178,-0.58363 -0.361597,-0.7164761 -0.893768,-0.72031 -0.688339,-0.00496 -20.056891,-0.036929 -20.718915,-0.040699 -0.662024,-0.00377 -1.265625,-0.2734375 -1.237682,-1.16726 -0.07631,-11.9828178 -0.07874,-19.9261468 -0.08215,-21.0350388 -0.0054,-1.753922 -0.601648,-1.720144 -1.379108,-1.743971 0,0 -31.266924,0.17918 -32.464223,0.171273 -1.197299,-0.0079 -1.881498,0.517551 -1.895913,1.736614 z m 10.910648,29.48947819 37.290501,0 c 2.05575,0 3.70003,1.31521407 3.70003,2.96880361 l 0,0.6796057 c 0,1.6535896 -1.64428,2.9688037 -3.70003,2.9688037 l -37.290501,0 c -2.055751,0 -3.70003,-1.3152141 -3.70003,-2.9688037 l 0,-0.6796057 c 0,-1.65358954 1.644279,-2.96880361 3.70003,-2.96880361 z m 0,13.23442581 37.290501,0 c 2.05575,0 3.70003,1.350983 3.70003,3.004572 l 0,0.643837 c 0,1.65359 -1.64428,3.004573 -3.70003,3.004573 l -37.290501,0 c -2.055751,0 -3.70003,-1.350983 -3.70003,-3.004573 l 0,-0.643837 c 0,-1.653589 1.644279,-3.004572 3.70003,-3.004572 z m 0,13.270195 37.290501,0 c 2.05575,0 3.70003,1.350983 3.70003,3.004572 l 0,0.643837 c 0,1.65359 -1.64428,3.004572 -3.70003,3.004572 l -37.290501,0 c -2.055751,0 -3.70003,-1.350982 -3.70003,-3.004572 l 0,-0.643837 c 0,-1.653589 1.644279,-3.004572 3.70003,-3.004572 z"/></g></svg>