<svg xmlns="http://www.w3.org/2000/svg" xmlns:svg="http://www.w3.org/2000/svg" id="svg2985" width="64" height="64" version="1.1" style="enable-background:new"><metadata id="metadata2990"/><g id="layer3" transform="translate(0,-32)" style="display:inline"><rect style="fill:#29507f;fill-opacity:1" id="rect3884" width="64.164" height="64.328" x="-.164" y="32"/></g><g id="layer1" transform="translate(0,16)" style="display:inline"><rect style="fill:#fff;display:none" id="rect3772" width="64.368" height="46.305" x="15.764" y="-7.337"/><path style="fill:none;stroke:#fff;stroke-width:7.5;stroke-linecap:butt;stroke-linejoin:miter;stroke-miterlimit:4;stroke-opacity:.39607844;stroke-dasharray:none;display:inline;enable-background:new;fill-opacity:1" id="path3974" d="m 12.17575,15.450159 c -1.024265,-17.0787505 6.626535,-26.927738 19.374917,-27.055358 12.748382,-0.12762 20.553162,9.7398704 20.38405,26.779892"/><rect style="opacity:0;fill:#b9b9b9;fill-opacity:.7254902;stroke:none" id="rect4022" width="21.282" height="29.42" x="21.908" y="31.729" ry="4.813" transform="translate(0,-16)"/><path style="fill:#fff;fill-opacity:1;fill-rule:evenodd;stroke:none;display:inline;enable-background:new" id="rect3917" d="m 7.5,27.8125 c -2.666409,0 -4.8125,2.146091 -4.8125,4.8125 l 0,26.28125 c 0,2.666409 2.146091,4.8125 4.8125,4.8125 l 48.5,0 c 2.666409,0 4.8125,-2.146091 4.8125,-4.8125 l 0,-26.28125 c 0,-2.666409 -2.146091,-4.8125 -4.8125,-4.8125 l -48.5,0 z m 23.9375,4.875 c 1.445952,-0.09944 2.958712,0.198968 4.3125,0.90625 3.610103,1.886085 4.843873,6.073884 2.78125,9.375 -0.648681,1.038178 -1.562163,1.892013 -2.6875,2.5 l 0,9.4375 c 0.02418,5.791515 -7.99293,5.751573 -7.96875,0 0,0 -0.02305,-6.598471 -0.03125,-9.625 -3.269959,-1.987331 -4.351681,-5.961431 -2.375,-9.125 1.28914,-2.063197 3.55883,-3.303016 5.96875,-3.46875 z" transform="translate(0,-16)"/></g></svg>