<svg xmlns="http://www.w3.org/2000/svg" xmlns:svg="http://www.w3.org/2000/svg" xmlns:xlink="http://www.w3.org/1999/xlink" id="svg2985" width="64" height="64" version="1.1" style="enable-background:new"><metadata id="metadata2990"/><g id="layer3" transform="translate(0,-32)" style="display:inline"><rect style="fill:#000;fill-opacity:1" id="rect3884" width="64.164" height="64.328" x="-.164" y="32"/></g><g id="layer2" style="display:none"><image style="opacity:.4979424;display:inline;enable-background:new" id="image5782" width="111.597" height="108.289" x="3.118" y="-.267" xlink:href="file:///home/jobe/Downloads/canstockphoto11943362_comp.jpg"/></g><g id="layer4" style="display:none"><path style="opacity:.20987657;fill:none;stroke:#c2c2c2;stroke-width:3.29872513;stroke-miterlimit:4;stroke-opacity:1;stroke-dasharray:none;display:inline;enable-background:new" id="path3322-4" d="m 47.747489,33.331421 a 14.370158,13.956958 0 1 1 -28.740316,0 14.370158,13.956958 0 1 1 28.740316,0 z" transform="matrix(1.1810128,0,0,1.2126874,-7.183761,-8.282861)"/></g><g id="layer1" transform="translate(0,16)" style="display:inline"><rect style="fill:#fff;display:none" id="rect3772" width="64.368" height="46.305" x="15.764" y="-7.337"/><path style="fill:#fff;fill-opacity:.10196078;stroke:none;display:inline;enable-background:new" id="path6552" d="m 60.510758,17.400288 a 6.6571016,9.962697 0 1 1 -13.314203,0 6.6571016,9.962697 0 1 1 13.314203,0 z" transform="matrix(3.4620691,0,0,2.327189,-154.47093,-24.264203)"/><path style="fill:none;stroke:#fff;stroke-width:.90959505;stroke-miterlimit:4;stroke-opacity:.39607842999999998;stroke-dasharray:none" id="path3322" d="m 47.747489,33.331421 a 14.370158,13.956958 0 1 1 -28.740316,0 14.370158,13.956958 0 1 1 28.740316,0 z" transform="matrix(0.63906256,0,0,0.68086804,10.964475,-6.4834655)"/><path style="fill:none;stroke:#fff;stroke-width:.6;stroke-linecap:butt;stroke-linejoin:round;stroke-miterlimit:4;stroke-opacity:1;stroke-dasharray:none" id="path4112" d="m 30.23843,3.2826093 -0.08299,-3.40052905 4.398438,0 0,3.40052905 3.651533,1.1335104 1.991746,-2.8337749 3.153596,2.1860547 -1.908756,2.5908794 2.157725,2.6718441 3.172762,-1.4822434 1.519304,3.3257414 -3.115268,1.476066 0.663916,3.805354 3.517468,0.573015 -0.580927,3.992158 -3.517467,-0.597889 -1.659788,3.481494 2.700321,2.404075 -2.521595,2.765246 -2.668408,-2.416512 -3.070607,1.943159 1.321413,3.126501 -3.760018,1.307878 -1.212929,-3.219904 -3.983491,0 -0.823563,3.269735 -3.87492,-1.052546 1.04695,-3.350698 -3.153598,-1.700264 -2.330119,2.279455 -2.649244,-2.653147 2.489683,-2.298153 -1.825767,-3.157634 -3.37707,0.765994 -0.68941,-3.86762 3.3834,-0.697552 0.383034,-3.574896 -3.313159,-1.127332 1.564051,-3.9485871 3.351488,1.2830019 2.18322,-2.7589857 -2.164055,-2.8898653 3.491885,-2.3728581 2.157725,2.8337748 z"/></g></svg>