<svg xmlns="http://www.w3.org/2000/svg" xmlns:svg="http://www.w3.org/2000/svg" xmlns:xlink="http://www.w3.org/1999/xlink" id="svg2985" width="64" height="64" version="1.1" style="enable-background:new"><metadata id="metadata2990"/><g id="layer3" transform="translate(0,-32)" style="display:inline"><rect style="fill:#000;fill-opacity:1" id="rect3884" width="64.164" height="64.328" x="-.164" y="32"/></g><g id="layer2" style="display:none"><image style="opacity:.4979424;display:inline;enable-background:new" id="image5782" width="111.597" height="108.289" x="-23.285" y="-101.187" xlink:href="file:///home/jobe/Downloads/canstockphoto11943362_comp.jpg"/></g><g id="layer4" style="opacity:.22448982;display:none"><path style="fill:#fff;fill-opacity:.10196078;stroke:none;display:inline;enable-background:new" id="path6552-0" d="m 60.510758,17.400288 a 6.6571016,9.962697 0 1 1 -13.314203,0 6.6571016,9.962697 0 1 1 13.314203,0 z" transform="matrix(3.4620691,0,0,2.327189,-154.45749,-8.2942392)"/><path style="fill:none;stroke:#fff;stroke-width:.60000002;stroke-linecap:butt;stroke-linejoin:miter;stroke-miterlimit:4;stroke-opacity:.6;stroke-dasharray:none;display:inline;enable-background:new" id="path6877-41" d="m 19.252916,31.688792 c 6.244346,-6.671827 20.244124,-7.680411 27.184745,2.727389"/><path style="fill:none;stroke:#fff;stroke-width:.60000002;stroke-linecap:butt;stroke-linejoin:miter;stroke-miterlimit:4;stroke-opacity:1;stroke-dasharray:none;display:inline;enable-background:new" id="path6857-5" d="m 46.595039,34.130842 c -8.742691,6.443954 -22.163248,2.591253 -30.19946,-4.623175 7.039305,8.21827 21.333257,11.139576 30.19946,4.623175 z"/><path style="fill:none;stroke:#fff;stroke-width:.60000002;stroke-linecap:butt;stroke-linejoin:miter;stroke-miterlimit:4;stroke-opacity:1;stroke-dasharray:none;display:inline;enable-background:new" id="path6879-8" d="m 26.710949,41.741865 c 1.316773,-1.152291 2.225135,-2.824183 3.168783,-4.942684"/><path style="fill:none;stroke:#fff;stroke-width:.60000002;stroke-linecap:butt;stroke-linejoin:miter;stroke-miterlimit:4;stroke-opacity:1;stroke-dasharray:none;display:inline;enable-background:new" id="path6879-3-7" d="m 36.570271,42.0317 c 0.522028,-1.552677 0.753555,-3.139503 0.477987,-4.561594"/><path style="fill:none;stroke:#fff;stroke-width:.60000002;stroke-linecap:butt;stroke-linejoin:miter;stroke-miterlimit:4;stroke-opacity:1;stroke-dasharray:none;display:inline;enable-background:new" id="path6879-3-2-5" d="M 40.995106,40.016786 C 41.14385,38.820959 41.117637,38.185952 40.760557,36.81949"/><path style="fill:none;stroke:#fff;stroke-width:.60000002;stroke-linecap:butt;stroke-linejoin:miter;stroke-miterlimit:4;stroke-opacity:1;stroke-dasharray:none;display:inline;enable-background:new" id="path6879-3-2-0-4-5" d="m 31.695249,42.615406 c 1.02334,-1.287044 1.375529,-2.79096 1.410294,-5.203036"/><path style="fill:none;stroke:#fff;stroke-width:.60000002;stroke-linecap:butt;stroke-linejoin:miter;stroke-miterlimit:4;stroke-opacity:1;stroke-dasharray:none;display:inline;enable-background:new" id="path6879-3-2-0-4-4" d="m 22.699153,39.601657 c 1.632686,-1.153502 2.816882,-2.289894 3.506151,-3.818563"/><path style="fill:none;stroke:#fff;stroke-width:.60000002;stroke-linecap:butt;stroke-linejoin:miter;stroke-miterlimit:4;stroke-opacity:1;stroke-dasharray:none;display:inline;enable-background:new" id="path6879-3-0" d="m 19.505276,37.106419 c 0.878884,-0.307381 2.48243,-0.638658 3.873325,-2.732346"/><path style="fill:none;stroke:#fff;stroke-width:.60000002;stroke-linecap:butt;stroke-linejoin:miter;stroke-miterlimit:4;stroke-opacity:1;stroke-dasharray:none;display:inline;enable-background:new" id="path6879-3-2-1" d="m 17.28056,34.467329 c 1.42205,-0.104333 1.696303,-0.249627 3.042263,-1.672602"/><path style="fill:none;stroke:#fff;stroke-width:.60000002;stroke-linecap:butt;stroke-linejoin:miter;stroke-miterlimit:4;stroke-opacity:1;stroke-dasharray:none;display:inline;enable-background:new" id="path6879-3-2-13" d="M 44.420609,37.231504 C 44.238617,36.751495 43.992912,36.276051 43.790468,35.910517"/><path style="fill:none;stroke:#fff;stroke-width:.60000002;stroke-linecap:butt;stroke-linejoin:miter;stroke-miterlimit:4;stroke-opacity:1;stroke-dasharray:none;display:inline;enable-background:new" id="path6371" d="m 21.771043,33.791916 c -0.549539,0.696996 -1.109225,1.393992 -3.277766,2.090988"/><path style="fill:none;stroke:#fff;stroke-width:.60000002;stroke-linecap:butt;stroke-linejoin:miter;stroke-miterlimit:4;stroke-opacity:1;stroke-dasharray:none;display:inline;enable-background:new" id="path6373" d="m 24.653217,35.374286 c -0.748836,1.390416 -1.928836,2.241875 -3.277766,2.882173"/><path style="fill:none;stroke:#fff;stroke-width:.60000002;stroke-linecap:butt;stroke-linejoin:miter;stroke-miterlimit:4;stroke-opacity:1;stroke-dasharray:none;display:inline;enable-background:new" id="path6375" d="m 27.874469,36.617576 c -0.534833,1.225683 -1.499691,2.523036 -2.938687,3.899412"/><path style="fill:none;stroke:#fff;stroke-width:.60000002;stroke-linecap:butt;stroke-linejoin:miter;stroke-miterlimit:4;stroke-opacity:1;stroke-dasharray:none;display:inline;enable-background:new" id="path6377" d="m 31.547828,37.408761 c -0.302694,2.303675 -1.211295,3.637898 -2.260529,4.747109"/><path style="fill:none;stroke:#fff;stroke-width:.60000002;stroke-linecap:butt;stroke-linejoin:miter;stroke-miterlimit:4;stroke-opacity:1;stroke-dasharray:none;display:inline;enable-background:new" id="path6379" d="m 35.221186,37.578301 c 0.01634,1.768246 -0.261236,3.242583 -0.847698,4.40803"/><path style="fill:none;stroke:#fff;stroke-width:.60000002;stroke-linecap:butt;stroke-linejoin:miter;stroke-miterlimit:4;stroke-opacity:1;stroke-dasharray:none;display:inline;enable-background:new" id="path6381" d="m 39.00757,37.295735 c 0.273186,1.328099 0.174166,2.283992 10e-7,3.16474"/><path style="fill:none;stroke:#fff;stroke-width:.60000002;stroke-linecap:butt;stroke-linejoin:miter;stroke-miterlimit:4;stroke-opacity:1;stroke-dasharray:none;display:inline;enable-background:new" id="path6383" d="m 42.285336,36.561063 0.452105,2.034476"/><path style="fill:none;stroke:#fff;stroke-width:.60000002;stroke-linecap:butt;stroke-linejoin:miter;stroke-miterlimit:4;stroke-opacity:.6;stroke-dasharray:none;display:inline;enable-background:new" id="path6877-4" d="m 19.017932,20.417649 c 11.333001,-6.7025 18.157231,-3.273699 27.368388,1.533702 0.174547,0.681591 -0.343432,0.529113 -2.333216,-0.490573 C 33.976976,16.297157 29.808395,14.538293 19.017932,20.417649 z"/></g><g id="layer1" transform="translate(0,16)" style="display:inline"><rect style="fill:#fff;display:none" id="rect3772" width="64.368" height="46.305" x="15.764" y="-7.337"/><path style="fill:#fff;fill-opacity:.10196078;stroke:none;display:inline;enable-background:new" id="path6552" d="m 60.510758,17.400288 a 6.6571016,9.962697 0 1 1 -13.314203,0 6.6571016,9.962697 0 1 1 13.314203,0 z" transform="matrix(3.4620691,0,0,2.327189,-154.47093,-24.264203)"/><path style="fill:none;stroke:#fff;stroke-width:.60000002;stroke-linecap:butt;stroke-linejoin:miter;stroke-miterlimit:4;stroke-opacity:.6;stroke-dasharray:none" id="path6877" d="m 20.573115,29.107369 c 10.496298,-12.227646 25.30809,-6.134804 26.967326,6.874694" transform="translate(0,-16)"/><path style="fill:none;stroke:#fff;stroke-width:.60000002;stroke-linecap:butt;stroke-linejoin:miter;stroke-miterlimit:4;stroke-opacity:1;stroke-dasharray:none;display:inline;enable-background:new" id="path6857" d="m 47.540441,19.982063 c -9.610368,-19.98997432 -27.832012,-2.660432 -35.1084,-6.273032 8.295079,4.992999 24.669651,-13.86660215 35.1084,6.273032 z"/><path style="fill:none;stroke:#fff;stroke-width:.60000002;stroke-linecap:butt;stroke-linejoin:miter;stroke-miterlimit:4;stroke-opacity:1;stroke-dasharray:none" id="path7794" d="m 18.610122,30.406394 c 4.145688,8.606408 18.775265,12.592029 29.024404,5.293414" transform="translate(0,-16)"/><path style="fill:none;stroke:#fff;stroke-width:.65759462;stroke-linecap:round;stroke-linejoin:round;stroke-miterlimit:4;stroke-opacity:.6;stroke-dasharray:none" id="path4006" d="m 38.568684,28.753298 a 7.1621232,6.6111908 0 1 1 -7.300563,0.17247" transform="matrix(0.93593773,0,0,0.96718136,0.35015658,-17.03457)"/><path style="fill:none;stroke:#fff;stroke-width:.59849703;stroke-linecap:round;stroke-linejoin:round;stroke-miterlimit:4;stroke-opacity:.6;stroke-dasharray:none;display:inline;enable-background:new" id="path4006-9" d="m 42.238162,34.525108 a 7.1621232,6.6111908 0 1 1 -14.324247,0 7.1621232,6.6111908 0 1 1 14.324247,0 z" transform="matrix(0.25525802,0,0,0.26958509,24.20226,6.9815885)"/><path style="fill:none;stroke:#fff;stroke-width:.60000002;stroke-linecap:butt;stroke-linejoin:miter;stroke-miterlimit:4;stroke-opacity:1;stroke-dasharray:none" id="path6630" d="m 19.441086,31.924005 c -1.352322,0.248005 -2.141845,1.335768 -2.143753,1.339965" transform="translate(0,-16)"/><path style="fill:none;stroke:#fff;stroke-width:.60000002;stroke-linecap:butt;stroke-linejoin:miter;stroke-miterlimit:4;stroke-opacity:1;stroke-dasharray:none" id="path6632" d="m 20.459787,33.460212 c -0.538973,0.262244 -1.304441,0.142885 -1.964946,1.134322" transform="translate(0,-16)"/><path style="fill:none;stroke:#fff;stroke-width:.60000002;stroke-linecap:butt;stroke-linejoin:miter;stroke-miterlimit:4;stroke-opacity:1;stroke-dasharray:none" id="path6634" d="m 21.876364,34.80219 c -0.497321,0.128466 -1.172346,0.147203 -1.546291,0.645796" transform="translate(0,-16)"/><path style="fill:none;stroke:#fff;stroke-width:.60000002;stroke-linecap:butt;stroke-linejoin:miter;stroke-miterlimit:4;stroke-opacity:1;stroke-dasharray:none" id="path6636" d="m 18.694425,29.604919 c -2.33878,-0.32096 -3.186336,-1.263264 -4.05822,-2.195431" transform="translate(0,-16)"/><path style="fill:none;stroke:#fff;stroke-width:.60000002;stroke-linecap:butt;stroke-linejoin:miter;stroke-miterlimit:4;stroke-opacity:1;stroke-dasharray:none" id="path6638" d="m 21.325796,28.825114 c -1.480385,-0.34253 -2.56074,-1.351776 -3.677721,-2.299978" transform="translate(0,-16)"/><path style="fill:none;stroke:#fff;stroke-width:.60000002;stroke-linecap:butt;stroke-linejoin:miter;stroke-miterlimit:4;stroke-opacity:1;stroke-dasharray:none" id="path6640" d="m 23.500598,28.282426 c -0.659432,-0.29169 -1.693493,-1.371124 -2.477686,-2.536143" transform="translate(0,-16)"/><path style="fill:none;stroke:#fff;stroke-width:.60000002;stroke-linecap:butt;stroke-linejoin:miter;stroke-miterlimit:4;stroke-opacity:1;stroke-dasharray:none" id="path6642" d="m 26.079056,27.409488 c -0.838396,-0.189592 -1.544885,-1.434432 -2.261959,-2.5946" transform="translate(0,-16)"/><path style="fill:none;stroke:#fff;stroke-width:.60000002;stroke-linecap:butt;stroke-linejoin:miter;stroke-miterlimit:4;stroke-opacity:1;stroke-dasharray:none" id="path6644" d="m 28.939769,26.810734 c -0.83697,-0.383422 -1.608035,-1.096365 -2.195431,-2.727656" transform="translate(0,-16)"/><path style="fill:none;stroke:#fff;stroke-width:.60000002;stroke-linecap:butt;stroke-linejoin:miter;stroke-miterlimit:4;stroke-opacity:1;stroke-dasharray:none" id="path6646" d="M 31.733953,26.21198 C 31.167013,25.750867 30.801628,25.037811 30.73603,23.950021" transform="translate(0,-16)"/><path style="fill:none;stroke:#fff;stroke-width:.60000002;stroke-linecap:butt;stroke-linejoin:miter;stroke-miterlimit:4;stroke-opacity:1;stroke-dasharray:none" id="path6648" d="M 34.481095,26.161594 C 34.218206,25.639685 33.957765,25.116143 34.06244,24.349191" transform="translate(0,-16)"/><path style="fill:none;stroke:#fff;stroke-width:.60000002;stroke-linecap:butt;stroke-linejoin:miter;stroke-miterlimit:4;stroke-opacity:1;stroke-dasharray:none" id="path6650" d="M 37.122738,26.61115 36.989681,25.014473" transform="translate(0,-16)"/><path style="fill:none;stroke:#fff;stroke-width:.60000002;stroke-linecap:butt;stroke-linejoin:miter;stroke-miterlimit:4;stroke-opacity:.6;stroke-dasharray:none;display:inline;enable-background:new" id="path6877-4-0" d="m 18.712328,2.6056066 c 11.333001,-6.7025 18.157231,-3.27369903 27.368388,1.533702 0.174547,0.6815909 -0.343432,0.5291129 -2.333216,-0.490573 -10.076128,-5.163621 -14.244709,-6.922485 -25.035172,-1.043129 z"/><path style="fill:#fff;fill-opacity:1;stroke:#fff;stroke-width:.60000002;stroke-linecap:round;stroke-linejoin:round;stroke-miterlimit:4;stroke-opacity:1;stroke-dasharray:none" id="path6670" d="m 31.565547,33.163612 a 0.4939467,0.44690415 0 1 1 -0.987894,0 0.4939467,0.44690415 0 1 1 0.987894,0 z" transform="matrix(0.78696645,0,0,0.81717344,6.9205434,-9.4031767)"/><path style="fill:#fff;fill-opacity:1;stroke:#fff;stroke-width:.60000002;stroke-linecap:round;stroke-linejoin:round;stroke-miterlimit:4;stroke-opacity:1;stroke-dasharray:none" id="path6672" d="m 35.940505,32.340366 a 0.75268072,0.75268072 0 1 1 -1.505361,0 0.75268072,0.75268072 0 1 1 1.505361,0 z" transform="translate(0.54874596,-16.051323)"/><path style="fill:none;stroke:#fff;stroke-width:.1;stroke-linecap:butt;stroke-linejoin:miter;stroke-miterlimit:4;stroke-opacity:1;stroke-dasharray:none" id="path5305" d="m 32.964132,30.186514 c -2.386329,0.170141 -2.881803,3.729657 0.02295,4.269727 0.740147,0.137612 1.355602,0.631836 1.262555,1.606887" transform="translate(0,-16)"/><path style="fill:none;stroke:#fff;stroke-width:.1;stroke-linecap:butt;stroke-linejoin:miter;stroke-miterlimit:4;stroke-opacity:1;stroke-dasharray:none" id="path5307" d="m 32.321378,34.548063 c -2.598073,-0.937714 -1.875327,-4.695126 0.711615,-4.728838 0.52547,-0.01067 0.953412,-0.05041 1.49211,-0.757532" transform="translate(0,-16)"/><path style="fill:none;stroke:#fff;stroke-width:.1;stroke-linecap:butt;stroke-linejoin:miter;stroke-miterlimit:4;stroke-opacity:1;stroke-dasharray:none" id="path5309" d="m 31.770445,34.639886 c -2.807047,-1.586564 -1.018813,-5.238072 1.216642,-5.23386 0.914682,0.0573 1.098678,-0.367846 1.538021,-0.964132" transform="translate(0,-16)"/><path style="fill:none;stroke:#fff;stroke-width:.1;stroke-linecap:butt;stroke-linejoin:miter;stroke-miterlimit:4;stroke-opacity:1;stroke-dasharray:none" id="path5311" d="m 30.002869,32.2066 c -0.124478,-1.343125 1.167461,-3.003451 2.892396,-3.098996" transform="translate(0,-16)"/><path style="fill:none;stroke:#fff;stroke-width:.1;stroke-linecap:butt;stroke-linejoin:miter;stroke-miterlimit:4;stroke-opacity:1;stroke-dasharray:none;display:inline;enable-background:new" id="path5311-0" d="m 29.708592,16.149211 c -0.147433,-1.664502 1.397017,-3.255961 3.121952,-3.351506"/><path style="fill:none;stroke:#fff;stroke-width:.1;stroke-linecap:butt;stroke-linejoin:miter;stroke-miterlimit:4;stroke-opacity:1;stroke-dasharray:none;display:inline;enable-background:new" id="path5311-0-3" d="M 29.422453,16.160688 C 29.27502,14.082986 31.07198,12.560394 32.796915,12.464849"/></g></svg>