<svg xmlns="http://www.w3.org/2000/svg" xmlns:svg="http://www.w3.org/2000/svg" id="svg2985" width="64" height="64" version="1.1" style="enable-background:new"><metadata id="metadata2990"/><g id="layer3" transform="translate(0,-32)" style="display:inline"><rect style="fill:#4995a9;fill-opacity:1" id="rect3884" width="64.164" height="64.328" x="-.079" y="31.972"/></g><g id="layer1" transform="translate(0,16)" style="display:inline"><rect style="fill:#fff;display:none" id="rect3772" width="64.368" height="46.305" x="15.764" y="-7.337"/><path style="fill:#fff;fill-opacity:.2;display:inline;enable-background:new" id="path4890-3-7" d="m 26.90625,27.40625 0,1.875 34.8125,0 -1.875,-1.875 z m 35.375,2.46875 c 0.228393,0.316156 0.303955,0.606655 0.25,0.90625 l -35.625,0 0,1.875 34.125,0 -1.4375,1.46875 -32.6875,0 0,1.875 9.8125,0 c 0.590552,-0.512133 1.532919,-1.438897 1.84375,-1.75 l 1.71875,1.75 3.3125,0 c 1.106248,-1.00951 0.594025,-0.528205 1.8125,-1.75 L 47.1875,36 50.5,36 c 1.318217,-1.281174 0.636782,-0.591384 1.84375,-1.8125 l 1.8125,1.8125 0.03125,0 3.53125,0 c 1.276514,-1.242167 3.139833,-3.100501 4.34375,-4.3125 0.581497,-0.609833 0.704836,-1.175919 0.21875,-1.8125 z" transform="translate(0,-16)"/><path id="path4890" d="m 55.917145,21.749244 -3.601828,-3.60488 -3.479692,3.521628 -3.452151,-3.456215 -3.442572,3.456215 -3.423414,-3.456215 -4.490312,4.496884 -5.734426,0.0559 c -2.451112,4.330377 -7.10068,7.294205 -12.450736,7.294205 -7.9520415,0 -14.3881544,-6.392688 -14.3881544,-14.291076 0,-7.898389 6.4361129,-14.281562 14.3881544,-14.281562 5.294976,0 9.851145,2.899605 12.366917,7.136023 l 28.934369,0.06541 4.855522,4.878662 c 0.757966,0.752851 0.692108,1.393903 0.02754,2.090855 l -6.307748,6.250455 M 9.5543816,19.399114 c 2.1325984,0 3.8640624,-1.747136 3.8640624,-3.865346 0,-2.090854 -1.730267,-3.828476 -3.8640624,-3.828476 -2.1337957,0 -3.8544839,1.737622 -3.8544839,3.828476 0,2.11821 1.7218853,3.865346 3.8544839,3.865346 z" style="fill:none;stroke:#fff;stroke-width:.5;stroke-miterlimit:4;stroke-opacity:1;stroke-dasharray:none"/><text style="font-size:5px;font-style:normal;font-variant:normal;font-weight:500;font-stretch:normal;line-height:125%;letter-spacing:0;word-spacing:0;fill:#fff;fill-opacity:.2;stroke:none;display:inline;enable-background:new;font-family:Ubuntu;-inkscape-font-specification:Ubuntu Medium" id="text5019" x="-24.658" y="17.685" transform="matrix(0,-1,1,0,0,0)" xml:space="preserve"><tspan id="tspan5021" x="-24.658" y="17.685" style="font-size:4.69999980999999956px;font-weight:500;-inkscape-font-specification:Ubuntu Medium;fill:#fff;fill-opacity:.2">own</tspan><tspan id="tspan5065" x="-24.658" y="23.56" style="font-size:4.69999980999999956px;font-weight:500;-inkscape-font-specification:Ubuntu Medium;fill:#fff;fill-opacity:.2">Keepass</tspan></text></g></svg>