<svg xmlns="http://www.w3.org/2000/svg" xmlns:svg="http://www.w3.org/2000/svg" id="svg2985" width="64" height="64" version="1.1" style="enable-background:new"><metadata id="metadata2990"/><g id="layer3" transform="translate(0,-32)" style="display:inline"><rect style="fill:#0c6176;fill-opacity:1" id="rect3884" width="64.164" height="64.328" x="-.633" y="32.091"/></g><g id="layer1" transform="translate(0,16)" style="display:inline"><path style="fill:none;stroke:#fff;stroke-width:.5;stroke-miterlimit:4;stroke-opacity:.2;stroke-dasharray:none" id="rect4635" d="m 6.0203028,-7.7560975 c 0,0 7.0372832,-0.083186 9.7584182,0 2.721135,0.083186 3.16161,0.9409229 4.904035,2.348782 1.742425,1.4078591 2.795051,2.7582019 4.723714,2.7932553 1.928664,0.035053 16.134679,0 24.097346,0 1.656555,0 3.657571,0.7319596 3.466826,4.3180549 l -37.166804,0.00488 C 13.590556,1.530222 10.497318,2.9535865 9.7772513,6.0735137 6.7273296,18.007993 6.5059397,18.938814 2.2955525,35.876621 l 0,-40.2525205 c 0,-1.8726285 2.0308143,-3.3801958 3.7247503,-3.380198 z"/><rect style="fill:#fff;display:none" id="rect3772" width="64.368" height="46.305" x="15.764" y="-7.337"/><rect style="fill:none;fill-opacity:1;stroke:#fff;stroke-opacity:1;stroke-width:.50775597;stroke-miterlimit:4;stroke-dasharray:none" id="rect4625" width="51.833" height="38.824" x="11.302" y="1.755" ry="4.356" transform="matrix(1,0,-0.24436488,0.96968335,0,0)"/></g></svg>