<svg xmlns="http://www.w3.org/2000/svg" xmlns:svg="http://www.w3.org/2000/svg" id="svg2985" width="64" height="64" version="1.1" style="enable-background:new"><metadata id="metadata2990"/><g id="layer3" transform="translate(0,-32)" style="display:inline"><rect style="fill:#4995a9;fill-opacity:1" id="rect3884" width="64.164" height="64.328" x="-.164" y="32"/></g><g id="layer1" transform="translate(0,16)" style="display:inline"><rect style="fill:#fff;display:none" id="rect3772" width="64.368" height="46.305" x="15.764" y="-7.337"/><path style="fill:#fff;fill-opacity:1;stroke:none" id="path3848" d="m 57.980812,19.58477 a 12.050644,10.948871 0 1 1 -24.101288,0 12.050644,10.948871 0 1 1 24.101288,0 z" transform="matrix(0.26470053,0,0,0.27457252,-1.8976264,-17.269315)"/><path style="fill:#00384f;fill-opacity:.56470588;stroke:none" id="path3853" d="m 44.992826,16.573889 a 11.294118,10.97274 0 1 1 -22.588236,0 11.294118,10.97274 0 1 1 22.588236,0 z" transform="matrix(0.31300813,0,0,0.29288701,-7.0128187,-16.538638)"/><path style="fill:#b9b9b9;fill-opacity:1;stroke:none;display:inline;enable-background:new" id="path3848-9" d="m 57.980812,19.58477 a 12.050644,10.948871 0 1 1 -24.101288,0 12.050644,10.948871 0 1 1 24.101288,0 z" transform="matrix(0.26470053,0,0,0.27457252,4.4819973,-17.269315)"/></g></svg>